<svg width="84" height="85" viewBox="0 0 84 85" fill="none" xmlns="http://www.w3.org/2000/svg">
<path fill-rule="evenodd" clip-rule="evenodd" d="M35.7045 60.5718C45.6911 63.7933 56.3985 58.3092 59.6201 48.3225C62.8417 38.3359 57.3575 27.6285 47.3709 24.4069C43.2813 23.0877 39.0709 23.2283 35.3031 24.5402C37.4079 26.5948 38.2961 29.7374 37.3318 32.7266C35.9754 36.9315 31.467 39.2406 27.2621 37.8842C25.8866 37.4405 24.7139 36.6595 23.8061 35.6621C23.6809 35.9883 23.5638 36.3196 23.4553 36.6562C20.2337 46.6428 25.7178 57.3502 35.7045 60.5718Z" fill="#FF2EAF"/>
<circle cx="41.5377" cy="42.4893" r="31" transform="rotate(17.8791 41.5377 42.4893)" stroke="#FF2EAF" stroke-width="4"/>
<circle cx="64.7472" cy="22.6571" r="8" transform="rotate(17.8791 64.7472 22.6571)" fill="#FF2EAF"/>
</svg>
